<svg xmlns="http://www.w3.org/2000/svg" viewBox="0 0 500 500"><defs><style>.cls-1{font-size:33.98px;fill:#858791;font-family:Montserrat-ExtraBold, Montserrat;font-weight:800;letter-spacing:0.18em;}.cls-2{letter-spacing:0.2em;}.cls-3{fill:#f99821;}.cls-4{fill:#404d68;}</style></defs><g id="Objects"><text class="cls-1" transform="translate(101.23 385.61)">C<tspan class="cls-2" x="31.37" y="0">ODE BUNKER</tspan></text><polygon class="cls-3" points="288.2 159.16 258.15 131 230.1 159.16 209.18 141.18 258.15 92.06 306.65 140.31 288.2 159.16"/><polygon class="cls-3" points="230.1 159.16 258.15 92.06 209.18 141.18 230.1 159.16"/><polygon class="cls-3" points="306.65 140.31 258.15 92.06 288.2 159.16 306.65 140.31"/><polygon class="cls-3" points="228.49 267.39 258.53 295.55 286.58 267.39 305.8 287.07 258.53 334.48 210.03 286.24 228.49 267.39"/><polygon class="cls-3" points="258.53 334.48 210.03 286.24 228.49 267.39 258.53 334.48"/><polygon class="cls-3" points="305.8 287.07 258.53 334.48 286.58 267.39 305.8 287.07"/><polygon class="cls-4" points="341.19 214.16 299.31 256.04 318.77 275.5 380.11 214.16 318.77 152.81 299.31 172.28 341.19 214.16"/><polygon class="cls-4" points="299.31 256.04 380.11 214.16 318.77 275.5 299.31 256.04"/><polygon class="cls-4" points="380.11 214.16 299.31 172.28 318.77 152.81 380.11 214.16"/><polygon class="cls-4" points="171.75 214.16 213.63 172.28 194.17 152.81 132.82 214.16 194.16 275.5 213.63 256.04 171.75 214.16"/><polygon class="cls-4" points="213.63 256.04 132.82 214.16 194.16 275.5 213.63 256.04"/><polygon class="cls-4" points="213.63 172.28 132.82 214.16 194.17 152.81 213.63 172.28"/><polygon class="cls-3" points="252.96 233.71 233.78 214.53 252.96 195.35 252.96 155.77 194.84 214.53 252.96 272.64 252.96 233.71"/><polygon class="cls-4" points="262.88 233.67 282.06 214.49 262.88 195.32 262.88 155.73 320.99 214.49 262.88 272.61 262.88 233.67"/><polygon class="cls-4" points="320.99 214.49 262.88 195.32 262.88 155.73 320.99 214.49"/><polygon class="cls-4" points="263 271.98 263 233.55 321.37 214.27 263 271.98"/></g></svg>